<svg width="65" height="65" fill="none" xmlns="http://www.w3.org/2000/svg"><path d="M32.824 34.612a2.609 2.609 0 0 0-.65 0 8.856 8.856 0 0 1-8.558-8.856 8.871 8.871 0 0 1 8.883-8.883 8.873 8.873 0 0 1 .325 17.74Zm17.93 17.875a26.905 26.905 0 0 1-18.255 7.096c-7.041 0-13.433-2.681-18.254-7.096.271-2.545 1.896-5.037 4.794-6.987 7.42-4.93 19.554-4.93 26.92 0 2.899 1.95 4.524 4.442 4.794 6.987Z" stroke="#fff" stroke-width="4.063" stroke-linecap="round" stroke-linejoin="round"/><path d="M32.5 59.583c14.958 0 27.083-12.125 27.083-27.083 0-14.958-12.125-27.083-27.083-27.083-14.958 0-27.084 12.125-27.084 27.083 0 14.958 12.126 27.083 27.084 27.083Z" stroke="#fff" stroke-width="4.063" stroke-linecap="round" stroke-linejoin="round"/></svg>